<?xml version="1.0" encoding="UTF-8"?>
<svg xmlns="http://www.w3.org/2000/svg" xmlns:xlink="http://www.w3.org/1999/xlink" viewBox="0 0 32 32" width="32px" height="32px">
<g id="surface31699986">
<path style=" stroke:none;fill-rule:nonzero;fill:rgb(100%,100%,100%);fill-opacity:1;" d="M 18 2 C 12.492188 2 8 6.492188 8 12 C 8 12.796875 8.179688 13.515625 8.359375 14.226562 L 2 20.585938 L 2 28 L 10 28 L 10 26 L 12 26 L 12 24 L 13.414062 24 L 15.773438 21.640625 C 16.484375 21.820312 17.203125 22 18 22 C 23.507812 22 28 17.507812 28 12 C 28 6.492188 23.507812 2 18 2 Z M 18 4 C 22.429688 4 26 7.570312 26 12 C 26 16.429688 22.429688 20 18 20 C 17.226562 20 16.46875 19.851562 15.703125 19.625 L 15.140625 19.453125 L 12.585938 22 L 10 22 L 10 24 L 8 24 L 8 26 L 4 26 L 4 21.414062 L 10.546875 14.859375 L 10.375 14.296875 C 10.148438 13.53125 10 12.773438 10 12 C 10 7.570312 13.570312 4 18 4 Z M 20 8 C 18.898438 8 18 8.898438 18 10 C 18 11.101562 18.898438 12 20 12 C 21.101562 12 22 11.101562 22 10 C 22 8.898438 21.101562 8 20 8 Z M 20 8 "/>
</g>
</svg>
